# xmcd
#
# Track frame offsets:
#	179
#	16604
#	30171
#	43596
#	55650
#	67829
#	82190
#	93745
#	111358
#	122484
#
# Disc length: 1844 seconds
# Revision: 3
# Processed by: cddbd v1.5.2PL0 Copyright (c) Steve Scherf et al.
# Submitted via: dBpowerAMP V12.0
#
DISCID=7207320a
DTITLE=Johnny Cash - Complete Columbia Album Collection, Disc 51 [The Baron]
DYEAR=1981
DGENRE=Country
TTITLE0=The Baron
TTITLE1=Mobile Bay
TTITLE2=The Hard Way
TTITLE3=A Ceiling, Four Walls and a Floor
TTITLE4=Hey, Hey Train
TTITLE5=The Reverend Mr. Black-> Lonesome Valley
TTITLE6=The Blues Keep Gettin' Bluer
TTITLE7=Chattanooga City Limit Sign
TTITLE8=Thanks to You
TTITLE9=The Greatest Love Affair
EXTD=
EXTT0=
EXTT1=
EXTT2=
EXTT3=
EXTT4=
EXTT5=
EXTT6=
EXTT7=
EXTT8=
EXTT9=
PLAYORDER=
